<?xml version="1.0" encoding="UTF-8" standalone="no"?>
<!DOCTYPE svg PUBLIC "-//W3C//DTD SVG 1.1//EN" "http://www.w3.org/Graphics/SVG/1.1/DTD/svg11.dtd">
<svg width="100%" height="100%" viewBox="0 0 512 512" version="1.1" xmlns="http://www.w3.org/2000/svg" xmlns:xlink="http://www.w3.org/1999/xlink" xml:space="preserve" xmlns:serif="http://www.serif.com/" style="fill-rule:evenodd;clip-rule:evenodd;stroke-linejoin:round;stroke-miterlimit:2;">
    <g transform="matrix(0.618654,0,0,0.618654,-142.313208,-142.564523)">
        <g>
            <path d="M307.38,982.26C307.38,971.85 310.69,946.99 314.36,930.7C321.46,898.62 330.65,871.92 344.12,844.37C356.37,819.27 366.78,803.35 370.69,803.35C372.65,803.35 377.43,807.27 386.73,816.7C398.36,828.46 401.18,830.66 411.47,835.68C431.19,845.35 446.62,847.19 464.62,841.93C482.38,836.79 496.95,826.62 510.18,810.09C530.02,785.48 538.84,756.82 538.84,717.14C538.84,689.34 535.29,668.16 527.08,646.36C524.39,639.38 523.41,638.03 521.08,638.03C519.61,638.03 517.16,639.01 515.69,640.23L513.12,642.31L516.18,654.56C521.32,675.13 523.04,686.77 523.77,707.83C525.61,759.39 512.14,794.16 481.28,817.31C472.34,823.92 468.67,825.88 459.85,828.45C448.34,831.76 431.07,829.31 417.85,822.45C409.16,817.92 395.56,805.43 385.64,792.69C371.07,773.95 357.11,759.75 348.41,754.97C344.37,752.64 333.35,748.23 323.92,745.05C301.26,737.46 297.59,735.74 285.83,728.03C262.44,712.48 252.15,693.86 254.85,672.43C257.54,650.39 280.44,594.18 296.85,568.83C320.85,531.97 350.86,509.56 386.25,501.97C401.56,498.66 425.93,498.79 438.91,502.09C453.24,505.76 468.42,514.34 481.65,526.21C488.26,532.21 494.02,536.37 495.49,536.37C498.92,536.37 501.25,533.43 500.27,530.37C498.31,524 484.23,508.94 471.98,499.88L468.43,497.31L472.72,492.78C486.56,478.21 519.38,460.08 540.07,455.67C543.13,454.94 549.13,453.59 553.54,452.61C567.38,449.3 593.09,447.83 609.26,449.43C638.53,452.12 661.67,459.1 697.31,476C728.05,490.57 737.6,494.49 748.25,497.31C753.27,498.66 758.17,500 759.03,500.25C760.13,500.74 760.13,501.84 758.66,505.39C756.09,511.88 751.92,528.78 751.92,532.7C751.92,537.6 754.61,540.54 758.41,539.56C761.1,538.95 762.08,537.11 766.49,523.76C769.31,515.43 772.37,507.6 773.35,506.25C774.7,504.17 776.9,503.56 785.23,502.94C790.86,502.57 798.7,501.35 802.74,500.37C815.72,496.94 815.48,496.7 822.7,511.27C829.19,524.37 831.39,526.82 835.07,524.5C838.38,522.42 838.01,517.03 833.48,504.66C831.03,498.05 829.07,492.41 829.07,491.92C829.07,491.55 833.72,488.12 839.48,484.33C845.11,480.53 850.13,476.98 850.5,476.37C851.72,474.53 860.42,474.9 862.13,476.86C864.82,480.29 875.23,486.17 878.29,486.17C880,486.17 882.09,485.31 882.94,484.33C885.02,481.76 882.7,478.57 872.78,470.25C868.25,466.58 864.58,462.9 864.58,462.29C864.58,461.56 866.42,458.49 868.62,455.31C874.74,446.74 878.91,436.7 881.23,424.69C887.11,394.69 872.17,366.77 845.35,357.46C840.08,355.75 835.19,355.13 824.41,355.13C810.69,355.13 809.84,355.25 791.96,361.38C781.92,364.69 773.22,367.14 772.73,366.52C771.75,365.54 765.38,326.97 765.38,322.56C765.38,320.6 768.07,318.76 777.38,314.36C798.81,304.2 815.1,300.15 838.37,299.17C906.7,296.23 959.12,343.5 967.57,415.51C971.61,449.92 963.53,493.4 946.51,529.03C940.63,541.4 927.9,561.48 921.53,568.58C918.22,572.25 917.98,572.25 911,566.74C897.65,556.09 873.89,555.47 857.24,565.39C853.81,567.35 853.2,567.35 845.73,565.39C835.32,562.57 824.91,562.82 812.18,565.88C791.12,570.9 771.16,589.27 767.36,607.03C766.63,610.09 765.28,611.44 759.77,614.13C748.38,619.64 740.54,626.99 736.62,635.81C733.56,642.42 733.07,645.12 732.95,654.42L732.83,665.44L727.44,667.15C720.58,669.48 703.56,667.76 692.54,663.72C683.23,660.29 675.03,659.8 673.07,662.74C669.52,668.5 680.66,688.82 692.79,698.74C703.44,707.31 722.43,715.15 733.08,715.15C737.49,715.15 740.18,716.86 739.45,718.95C737.61,723.73 725.98,737.07 714.22,747.85C703.93,757.4 698.91,761.08 690.71,764.99C671.97,774.05 660.46,777.6 647.11,778.46C634.01,779.19 631.92,780.05 631.92,784.46C631.92,789.48 635.59,790.22 655.92,789.48L674.66,788.75L678.33,795.24C689.47,815.2 709.07,830.75 734.29,839.94C750.58,845.94 762.7,847.9 783.76,847.9L802.74,848.02L806.9,852.67C812.17,858.55 817.92,861.49 827.23,863.2C838.5,865.28 850.74,864.79 866.54,861.61C901.93,854.38 933.65,840.91 957.77,822.67L967.44,815.44L979.07,816.3C991.68,817.16 994.38,816.3 994.38,811.28C994.38,807.48 992.54,806.26 984.34,804.67C959.85,799.65 941.36,769.77 946.62,743.93C949.8,728.13 958.13,716.13 970.25,710.13C977.11,706.58 978.45,706.33 988.13,706.82C1001.11,707.31 1008.09,710.49 1016.17,719.43C1028.05,732.66 1034.42,753.35 1033.07,774.78C1031.11,803.8 1018.62,834.17 996.21,864.3C979.92,886.22 936.69,927.73 926.04,931.53C924.94,932.02 921.75,933.73 919.06,935.57C916.37,937.28 911.59,939.73 908.41,940.96C905.23,942.18 902.29,943.65 901.92,944.27C900.33,946.72 876.08,955.29 858.45,959.46C853.43,960.68 848.53,962.15 847.8,962.89C845.23,964.73 795.26,965.58 782.28,963.87C768.32,962.03 753.13,958.6 740.77,954.44C731.59,951.5 731.34,951.26 730.61,946.72C728.53,933.13 713.1,891.74 707.59,884.75C703.79,879.85 695.59,881.08 695.59,886.59C695.59,887.57 698.04,894.79 701.1,902.51C707.71,919.16 713.1,936.8 716.29,952.72C718.62,963.74 721.31,982.48 721.31,987.25C721.31,989.33 711.76,989.45 514.35,989.45L307.39,989.45L307.39,982.22L307.38,982.26ZM602.51,580.47C603.86,579.12 604.96,577.16 604.96,576.18C604.96,573.24 609.25,565.53 612.55,562.46C616.84,558.42 623.69,555.97 630.67,555.97C637.53,555.97 642.55,558.05 648.79,563.44C653.57,567.6 655.53,567.85 658.83,564.54C662.87,560.5 662.01,555.97 656.14,550.21C648.55,542.74 641.81,540.05 630.55,540.05C618.18,540.05 610.34,542.5 603.12,548.87C592.22,558.42 586.59,576.55 592.96,580.95C596.63,583.52 599.57,583.4 602.51,580.46L602.51,580.47Z" style="fill:none;fill-rule:nonzero;stroke:black;stroke-width:29.1px;"/>
            <path d="M307.38,982.26C307.38,971.85 310.69,946.99 314.36,930.7C321.46,898.62 330.65,871.92 344.12,844.37C356.37,819.27 366.78,803.35 370.69,803.35C372.65,803.35 377.43,807.27 386.73,816.7C398.36,828.46 401.18,830.66 411.47,835.68C431.19,845.35 446.62,847.19 464.62,841.93C482.38,836.79 496.95,826.62 510.18,810.09C530.02,785.48 538.84,756.82 538.84,717.14C538.84,689.34 535.29,668.16 527.08,646.36C524.39,639.38 523.41,638.03 521.08,638.03C519.61,638.03 517.16,639.01 515.69,640.23L513.12,642.31L516.18,654.56C521.32,675.13 523.04,686.77 523.77,707.83C525.61,759.39 512.14,794.16 481.28,817.31C472.34,823.92 468.67,825.88 459.85,828.45C448.34,831.76 431.07,829.31 417.85,822.45C409.16,817.92 395.56,805.43 385.64,792.69C371.07,773.95 357.11,759.75 348.41,754.97C344.37,752.64 333.35,748.23 323.92,745.05C301.26,737.46 297.59,735.74 285.83,728.03C262.44,712.48 252.15,693.86 254.85,672.43C257.54,650.39 280.44,594.18 296.85,568.83C320.85,531.97 350.86,509.56 386.25,501.97C401.56,498.66 425.93,498.79 438.91,502.09C453.24,505.76 468.42,514.34 481.65,526.21C488.26,532.21 494.02,536.37 495.49,536.37C498.92,536.37 501.25,533.43 500.27,530.37C498.31,524 484.23,508.94 471.98,499.88L468.43,497.31L472.72,492.78C486.56,478.21 519.38,460.08 540.07,455.67C543.13,454.94 549.13,453.59 553.54,452.61C567.38,449.3 593.09,447.83 609.26,449.43C638.53,452.12 661.67,459.1 697.31,476C728.05,490.57 737.6,494.49 748.25,497.31C753.27,498.66 758.17,500 759.03,500.25C760.13,500.74 760.13,501.84 758.66,505.39C756.09,511.88 751.92,528.78 751.92,532.7C751.92,537.6 754.61,540.54 758.41,539.56C761.1,538.95 762.08,537.11 766.49,523.76C769.31,515.43 772.37,507.6 773.35,506.25C774.7,504.17 776.9,503.56 785.23,502.94C790.86,502.57 798.7,501.35 802.74,500.37C815.72,496.94 815.48,496.7 822.7,511.27C829.19,524.37 831.39,526.82 835.07,524.5C838.38,522.42 838.01,517.03 833.48,504.66C831.03,498.05 829.07,492.41 829.07,491.92C829.07,491.55 833.72,488.12 839.48,484.33C845.11,480.53 850.13,476.98 850.5,476.37C851.72,474.53 860.42,474.9 862.13,476.86C864.82,480.29 875.23,486.17 878.29,486.17C880,486.17 882.09,485.31 882.94,484.33C885.02,481.76 882.7,478.57 872.78,470.25C868.25,466.58 864.58,462.9 864.58,462.29C864.58,461.56 866.42,458.49 868.62,455.31C874.74,446.74 878.91,436.7 881.23,424.69C887.11,394.69 872.17,366.77 845.35,357.46C840.08,355.75 835.19,355.13 824.41,355.13C810.69,355.13 809.84,355.25 791.96,361.38C781.92,364.69 773.22,367.14 772.73,366.52C771.75,365.54 765.38,326.97 765.38,322.56C765.38,320.6 768.07,318.76 777.38,314.36C798.81,304.2 815.1,300.15 838.37,299.17C906.7,296.23 959.12,343.5 967.57,415.51C971.61,449.92 963.53,493.4 946.51,529.03C940.63,541.4 927.9,561.48 921.53,568.58C918.22,572.25 917.98,572.25 911,566.74C897.65,556.09 873.89,555.47 857.24,565.39C853.81,567.35 853.2,567.35 845.73,565.39C835.32,562.57 824.91,562.82 812.18,565.88C791.12,570.9 771.16,589.27 767.36,607.03C766.63,610.09 765.28,611.44 759.77,614.13C748.38,619.64 740.54,626.99 736.62,635.81C733.56,642.42 733.07,645.12 732.95,654.42L732.83,665.44L727.44,667.15C720.58,669.48 703.56,667.76 692.54,663.72C683.23,660.29 675.03,659.8 673.07,662.74C669.52,668.5 680.66,688.82 692.79,698.74C703.44,707.31 722.43,715.15 733.08,715.15C737.49,715.15 740.18,716.86 739.45,718.95C737.61,723.73 725.98,737.07 714.22,747.85C703.93,757.4 698.91,761.08 690.71,764.99C671.97,774.05 660.46,777.6 647.11,778.46C634.01,779.19 631.92,780.05 631.92,784.46C631.92,789.48 635.59,790.22 655.92,789.48L674.66,788.75L678.33,795.24C689.47,815.2 709.07,830.75 734.29,839.94C750.58,845.94 762.7,847.9 783.76,847.9L802.74,848.02L806.9,852.67C812.17,858.55 817.92,861.49 827.23,863.2C838.5,865.28 850.74,864.79 866.54,861.61C901.93,854.38 933.65,840.91 957.77,822.67L967.44,815.44L979.07,816.3C991.68,817.16 994.38,816.3 994.38,811.28C994.38,807.48 992.54,806.26 984.34,804.67C959.85,799.65 941.36,769.77 946.62,743.93C949.8,728.13 958.13,716.13 970.25,710.13C977.11,706.58 978.45,706.33 988.13,706.82C1001.11,707.31 1008.09,710.49 1016.17,719.43C1028.05,732.66 1034.42,753.35 1033.07,774.78C1031.11,803.8 1018.62,834.17 996.21,864.3C979.92,886.22 936.69,927.73 926.04,931.53C924.94,932.02 921.75,933.73 919.06,935.57C916.37,937.28 911.59,939.73 908.41,940.96C905.23,942.18 902.29,943.65 901.92,944.27C900.33,946.72 876.08,955.29 858.45,959.46C853.43,960.68 848.53,962.15 847.8,962.89C845.23,964.73 795.26,965.58 782.28,963.87C768.32,962.03 753.13,958.6 740.77,954.44C731.59,951.5 731.34,951.26 730.61,946.72C728.53,933.13 713.1,891.74 707.59,884.75C703.79,879.85 695.59,881.08 695.59,886.59C695.59,887.57 698.04,894.79 701.1,902.51C707.71,919.16 713.1,936.8 716.29,952.72C718.62,963.74 721.31,982.48 721.31,987.25C721.31,989.33 711.76,989.45 514.35,989.45L307.39,989.45L307.39,982.22L307.38,982.26ZM602.51,580.47C603.86,579.12 604.96,577.16 604.96,576.18C604.96,573.24 609.25,565.53 612.55,562.46C616.84,558.42 623.69,555.97 630.67,555.97C637.53,555.97 642.55,558.05 648.79,563.44C653.57,567.6 655.53,567.85 658.83,564.54C662.87,560.5 662.01,555.97 656.14,550.21C648.55,542.74 641.81,540.05 630.55,540.05C618.18,540.05 610.34,542.5 603.12,548.87C592.22,558.42 586.59,576.55 592.96,580.95C596.63,583.52 599.57,583.4 602.51,580.46L602.51,580.47Z" style="fill:rgb(251,242,227);fill-rule:nonzero;"/>
        </g>
        <g>
            <path d="M826.24,831.26C825.02,830.28 816.44,806.89 805.67,775.79C795.51,746.15 785.1,715.54 782.4,707.82C779.71,700.1 777.75,693 777.87,692.14C778.11,691.28 781.54,689.45 785.46,688.1C792.56,685.65 804.69,678.67 806.28,676.1C806.89,675.24 811.3,675 819.75,675.61C831.63,676.22 832.61,676.1 839.71,673.04C843.75,671.2 849.14,667.65 851.47,665.2C855.51,661.04 862.12,649.65 862.12,646.83C862.12,646.22 864.69,644.38 868,642.91C873.14,640.34 875.84,640.09 894.45,639.85L915.02,639.61L916.61,643.41C917.47,645.49 923.47,662.76 929.96,681.86L941.59,716.39L939.26,720.43C935.46,726.92 932.16,738.55 931.3,748.23C930.2,760.35 932.89,772.97 939.14,785.34C943.67,794.4 943.79,794.89 941.47,796.12C940.25,796.85 918.94,804.32 894.2,812.77C869.46,821.22 846.56,829.18 843.13,830.4C835.9,832.97 829.17,833.34 826.23,831.26L826.24,831.26ZM842.28,810.44C845.34,807.38 846.57,811.54 813.38,715.17L806.4,694.96L802.36,694.59C796.85,694.1 794.4,696.3 795.13,701.08C795.99,706.47 831.13,808.23 832.85,810.19C834.56,812.27 840.32,812.39 842.28,810.43L842.28,810.44Z" style="fill:none;fill-rule:nonzero;stroke:black;stroke-width:29.1px;"/>
            <path d="M826.24,831.26C825.02,830.28 816.44,806.89 805.67,775.79C795.51,746.15 785.1,715.54 782.4,707.82C779.71,700.1 777.75,693 777.87,692.14C778.11,691.28 781.54,689.45 785.46,688.1C792.56,685.65 804.69,678.67 806.28,676.1C806.89,675.24 811.3,675 819.75,675.61C831.63,676.22 832.61,676.1 839.71,673.04C843.75,671.2 849.14,667.65 851.47,665.2C855.51,661.04 862.12,649.65 862.12,646.83C862.12,646.22 864.69,644.38 868,642.91C873.14,640.34 875.84,640.09 894.45,639.85L915.02,639.61L916.61,643.41C917.47,645.49 923.47,662.76 929.96,681.86L941.59,716.39L939.26,720.43C935.46,726.92 932.16,738.55 931.3,748.23C930.2,760.35 932.89,772.97 939.14,785.34C943.67,794.4 943.79,794.89 941.47,796.12C940.25,796.85 918.94,804.32 894.2,812.77C869.46,821.22 846.56,829.18 843.13,830.4C835.9,832.97 829.17,833.34 826.23,831.26L826.24,831.26ZM842.28,810.44C845.34,807.38 846.57,811.54 813.38,715.17L806.4,694.96L802.36,694.59C796.85,694.1 794.4,696.3 795.13,701.08C795.99,706.47 831.13,808.23 832.85,810.19C834.56,812.27 840.32,812.39 842.28,810.43L842.28,810.44Z" style="fill:rgb(228,166,33);fill-rule:nonzero;"/>
            <path d="M991.44,692.03L985.44,691.3L983.73,684.56C981.28,674.4 975.16,663.01 970.5,659.33C966.46,656.27 965.72,656.15 954.95,656.76C948.7,657.13 942.21,657.62 940.62,657.86C937.93,658.23 937.31,657.37 935.35,652.47L933.15,646.59L935.97,644.75C937.56,643.77 944.66,642.3 951.89,641.44C963.65,640.22 965.36,640.34 970.75,642.3C984.96,647.69 997.2,665.93 1002.22,689.2C1003.2,693.61 1003.57,693.49 991.44,692.02L991.44,692.03Z" style="fill:none;fill-rule:nonzero;stroke:black;stroke-width:29.1px;"/>
            <path d="M991.44,692.03L985.44,691.3L983.73,684.56C981.28,674.4 975.16,663.01 970.5,659.33C966.46,656.27 965.72,656.15 954.95,656.76C948.7,657.13 942.21,657.62 940.62,657.86C937.93,658.23 937.31,657.37 935.35,652.47L933.15,646.59L935.97,644.75C937.56,643.77 944.66,642.3 951.89,641.44C963.65,640.22 965.36,640.34 970.75,642.3C984.96,647.69 997.2,665.93 1002.22,689.2C1003.2,693.61 1003.57,693.49 991.44,692.02L991.44,692.03Z" style="fill:rgb(228,166,33);fill-rule:nonzero;"/>
        </g>
        <g>
            <path d="M766.85,673.41C756.56,671.45 750.93,666.18 748.24,656.39C744.81,643.78 753.02,630.92 768.45,624.67L777.02,621.24L779.59,614.01C783.26,603.6 785.71,599.19 791.96,592.58C798.94,585.11 805.92,580.95 815.84,578.5C825.51,575.93 837.39,576.79 846.21,580.58C850.37,582.42 853.19,582.91 854.17,582.17C865.44,573.72 876.95,569.8 886.5,571.27C897.15,572.86 907.44,580.21 910.26,588.17C910.75,589.27 912.46,590.86 914.06,591.48C920.18,593.68 922.63,603.48 919.2,611.44C917,616.58 909.04,623.93 904.38,625.28C902.42,625.77 894.09,626.26 886.01,626.26C872.54,626.38 870.7,626.63 863.97,629.81C854.66,634.22 851.48,637.16 848.05,644.87C846.58,648.18 843.15,653.32 840.58,656.01C834.58,662.38 828.09,663.6 816.95,660.79C805.44,657.85 803.97,658.1 796.87,664.83C786.34,674.63 780.95,676.22 766.87,673.4L766.85,673.41Z" style="fill:none;fill-rule:nonzero;stroke:black;stroke-width:29.1px;"/>
            <path d="M766.85,673.41C756.56,671.45 750.93,666.18 748.24,656.39C744.81,643.78 753.02,630.92 768.45,624.67L777.02,621.24L779.59,614.01C783.26,603.6 785.71,599.19 791.96,592.58C798.94,585.11 805.92,580.95 815.84,578.5C825.51,575.93 837.39,576.79 846.21,580.58C850.37,582.42 853.19,582.91 854.17,582.17C865.44,573.72 876.95,569.8 886.5,571.27C897.15,572.86 907.44,580.21 910.26,588.17C910.75,589.27 912.46,590.86 914.06,591.48C920.18,593.68 922.63,603.48 919.2,611.44C917,616.58 909.04,623.93 904.38,625.28C902.42,625.77 894.09,626.26 886.01,626.26C872.54,626.38 870.7,626.63 863.97,629.81C854.66,634.22 851.48,637.16 848.05,644.87C846.58,648.18 843.15,653.32 840.58,656.01C834.58,662.38 828.09,663.6 816.95,660.79C805.44,657.85 803.97,658.1 796.87,664.83C786.34,674.63 780.95,676.22 766.87,673.4L766.85,673.41Z" style="fill:rgb(253,253,253);fill-rule:nonzero;"/>
        </g>
    </g>
</svg>
